<svg width="27" height="27" viewBox="0 0 27 27" fill="none" xmlns="http://www.w3.org/2000/svg">
<mask id="mask0_0_71" style="mask-type:alpha" maskUnits="userSpaceOnUse" x="0" y="0" width="27" height="27">
<rect x="0.5" y="0.5" width="26" height="26" fill="white"/>
</mask>
<g mask="url(#mask0_0_71)">
<path fill-rule="evenodd" clip-rule="evenodd" d="M11.4201 2.06C6.53289 2.06 2.58008 6.01281 2.58008 10.9C2.58008 15.7872 6.53289 19.74 11.4201 19.74C13.1649 19.74 14.7798 19.2281 16.1488 18.3587L22.5351 24.745L24.7451 22.535L18.4401 16.2462C19.5735 14.7594 20.2601 12.917 20.2601 10.9C20.2601 6.01281 16.3073 2.06 11.4201 2.06V2.06ZM11.4202 4.14C15.1638 4.14 18.1802 7.15641 18.1802 10.9C18.1802 14.6436 15.1638 17.66 11.4202 17.66C7.67656 17.66 4.66016 14.6436 4.66016 10.9C4.66016 7.15641 7.67656 4.14 11.4202 4.14V4.14Z" fill="#2E2D2D"/>
</g>
</svg>
